<?xml version="1.0" encoding="UTF-8" standalone="no"?>
<!-- Created with Inkscape (http://www.inkscape.org/) -->

<svg
   width="27.5mm"
   height="24mm"
   viewBox="0 0 27.5 24"
   version="1.1"
   id="svg1"
   xml:space="preserve"
   inkscape:version="1.4 (86a8ad7, 2024-10-11)"
   sodipodi:docname="jobicon.svg"
   xmlns:inkscape="http://www.inkscape.org/namespaces/inkscape"
   xmlns:sodipodi="http://sodipodi.sourceforge.net/DTD/sodipodi-0.dtd"
   xmlns="http://www.w3.org/2000/svg"
   xmlns:svg="http://www.w3.org/2000/svg"><sodipodi:namedview
     id="namedview1"
     pagecolor="#ffffff"
     bordercolor="#000000"
     borderopacity="0.25"
     inkscape:showpageshadow="2"
     inkscape:pageopacity="0.0"
     inkscape:pagecheckerboard="0"
     inkscape:deskcolor="#d1d1d1"
     inkscape:document-units="mm"
     inkscape:zoom="5.2561207"
     inkscape:cx="89.609814"
     inkscape:cy="61.357038"
     inkscape:window-width="1920"
     inkscape:window-height="991"
     inkscape:window-x="2391"
     inkscape:window-y="-9"
     inkscape:window-maximized="1"
     inkscape:current-layer="layer1"
     showguides="true" /><defs
     id="defs1" /><g
     inkscape:label="Layer 1"
     inkscape:groupmode="layer"
     id="layer1"><path
       style="fill:#ffffff;fill-opacity:1;stroke-width:0.201227"
       d="m 2.0215307,23.938996 c -0.9140232,-0.179505 -1.69096159,-0.97242 -1.86811189,-1.90653 -0.035608,-0.187759 -0.054344,-3.362065 -0.054344,-9.207024 0,-8.8984094 2.616e-4,-8.9210273 0.1096831,-9.1470416 0.0796334,-0.1645011 0.171757,-0.2566249 0.3362577,-0.3362585 C 0.76710047,3.2346323 0.84458117,3.232459 4.4550534,3.232459 H 8.1385166 V 2.7605537 c 0,-0.2595468 0.024455,-0.6008541 0.054344,-0.7584572 0.181338,-0.9561909 0.953582,-1.72843602 1.9097724,-1.90977392 0.386154,-0.073233 6.866294,-0.073233 7.252447,0 0.723451,0.1372007 1.400345,0.65072825 1.69901,1.28896222 0.196104,0.4190614 0.265107,0.7780647 0.265107,1.3792689 V 3.232459 l 3.713584,8.25e-5 c 4.213759,9.46e-5 3.980541,-0.023405 4.206065,0.4238185 l 0.119792,0.2375587 v 8.9259953 c 0,5.84872 -0.01873,9.024789 -0.05434,9.212552 -0.181338,0.956189 -0.953583,1.728434 -1.909774,1.909772 -0.356398,0.06759 -23.028333,0.06444 -23.3729901,-0.0032 z m 23.2936283,-1.62608 c 0.100171,-0.04753 0.235564,-0.161338 0.300874,-0.252896 l 0.118745,-0.166472 0.0098,-6.442201 0.0098,-6.4422031 -0.655658,1.9463081 c -0.360613,1.07047 -0.709428,2.051704 -0.775145,2.180521 -0.291755,0.571886 -0.976251,1.080626 -1.639474,1.218511 -0.180591,0.03755 -1.12434,0.05866 -2.622136,0.05866 h -2.339997 v 0.462363 c 0,0.597749 -0.116577,0.865752 -0.445941,1.025194 -0.221352,0.107155 -0.303095,0.109683 -3.54716,0.109683 -3.244064,0 -3.325806,-0.0025 -3.547159,-0.109683 C 9.8523422,15.741255 9.7357662,15.473252 9.7357662,14.875503 V 14.41314 H 7.3957585 c -1.4977961,0 -2.4415438,-0.02111 -2.6221356,-0.05866 C 4.1104,14.216599 3.4259049,13.707859 3.13415,13.135973 3.0684324,13.007156 2.7196169,12.025922 2.3590044,10.955452 l -0.655659,-1.9463081 0.0098,6.4422031 0.0098,6.442201 0.1180991,0.165564 c 0.2615771,0.366708 -0.7557852,0.337675 11.8797725,0.339017 10.420695,10e-4 11.428046,-0.0063 11.59435,-0.08521 z M 16.124717,13.61452 V 12.8159 h -2.395861 -2.39586 v 0.79862 0.79862 h 2.39586 2.395861 z M 9.7357562,12.353538 c 0,-0.597751 0.116576,-0.865753 0.4459408,-1.025196 0.221353,-0.107155 0.303095,-0.109683 3.547159,-0.109683 3.244065,0 3.325808,0.0025 3.547159,0.109683 0.329365,0.159443 0.445942,0.427445 0.445942,1.025196 V 12.8159 h 2.317707 c 2.509109,0 2.557573,-0.005 2.780977,-0.289049 0.06289,-0.07996 0.65302,-1.767014 1.347815,-3.8531391 0.679765,-2.0409998 1.24695,-3.7408577 1.260412,-3.7774609 0.01954,-0.053114 -2.342865,-0.066552 -11.700012,-0.066552 -9.3571471,0 -11.7195436,0.013442 -11.7000109,0.066552 0.013462,0.036603 0.5806464,1.7364611 1.2604121,3.7774609 0.6936226,2.0826061 1.2849649,3.7732381 1.3476707,3.8529541 0.2213427,0.281392 0.2551761,0.284901 2.7695204,0.287151 l 2.3293079,0.0021 z M 17.713493,2.6867355 c -0.01535,-0.4614077 -0.0365,-0.5714427 -0.136901,-0.712193 -0.249646,-0.3499842 -0.128743,-0.3393232 -3.847736,-0.3393232 -3.718993,0 -3.598088,-0.010665 -3.8477348,0.3393232 -0.100398,0.1407503 -0.121549,0.2507853 -0.136901,0.712193 l -0.01816,0.5457235 h 4.0027928 4.002794 z"
       id="path1" /></g></svg>
