<?xml version="1.0" encoding="UTF-8" standalone="no"?>
<!-- Created with Inkscape (http://www.inkscape.org/) -->

<svg
   width="18.5mm"
   height="18.5mm"
   viewBox="0 0 18.5 18.5"
   version="1.1"
   id="svg1"
   xml:space="preserve"
   inkscape:version="1.4 (86a8ad7, 2024-10-11)"
   sodipodi:docname="newwindowicon.svg"
   xmlns:inkscape="http://www.inkscape.org/namespaces/inkscape"
   xmlns:sodipodi="http://sodipodi.sourceforge.net/DTD/sodipodi-0.dtd"
   xmlns="http://www.w3.org/2000/svg"
   xmlns:svg="http://www.w3.org/2000/svg"><sodipodi:namedview
     id="namedview1"
     pagecolor="#ffffff"
     bordercolor="#000000"
     borderopacity="0.25"
     inkscape:showpageshadow="2"
     inkscape:pageopacity="0.0"
     inkscape:pagecheckerboard="0"
     inkscape:deskcolor="#d1d1d1"
     inkscape:document-units="mm"
     inkscape:zoom="7.4332772"
     inkscape:cx="63.363707"
     inkscape:cy="49.977956"
     inkscape:window-width="1920"
     inkscape:window-height="991"
     inkscape:window-x="2391"
     inkscape:window-y="-9"
     inkscape:window-maximized="1"
     inkscape:current-layer="layer1"
     showguides="true" /><defs
     id="defs1" /><g
     inkscape:label="Layer 1"
     inkscape:groupmode="layer"
     id="layer1"><path
       style="fill:#ffffff"
       d="M 2.2782876,18.313243 C 1.7432104,18.243001 1.28105,18.011917 0.8763303,17.612252 0.5446335,17.284698 0.3500459,16.965575 0.2127817,16.524034 L 0.1221663,16.23255 v -6.179472 c 0,-6.9125788 -0.0214877,-6.3715994 0.27559015,-6.9383182 C 0.7113171,2.5165977 1.1799342,2.1155057 1.836478,1.8833499 L 2.1431255,1.7749185 5.7296319,1.7640401 c 2.4861179,-0.00754 3.634496,0.00204 3.74292,0.03124 0.08603,0.023165 0.224358,0.1035006 0.3074,0.1785238 0.4196711,0.3791477 0.3399251,1.0573805 -0.157116,1.3362668 l -0.173165,0.097161 -3.5561113,0.019432 C 2.6432325,3.4444254 2.3270834,3.451774 2.2169078,3.5121241 2.0466943,3.6053607 1.8625669,3.8272833 1.8127247,3.9992726 1.7826621,4.1030088 1.7736587,5.8902887 1.7818231,10.133653 l 0.011521,5.987994 0.1072095,0.161997 c 0.058965,0.0891 0.1801083,0.210242 0.2692069,0.269207 l 0.1619975,0.10721 5.9879939,0.01152 c 4.2433641,0.0082 6.0306441,-8.39e-4 6.1343801,-0.0309 0.17199,-0.04984 0.393912,-0.23397 0.487149,-0.404183 0.06035,-0.110176 0.0677,-0.426325 0.08546,-3.676652 l 0.01943,-3.5561106 0.09716,-0.1731649 c 0.278886,-0.4970417 0.957119,-0.5767873 1.336267,-0.1571161 0.07502,0.083042 0.155359,0.2213714 0.178523,0.3073992 0.0292,0.1084242 0.03878,1.2568024 0.03124,3.7429204 l -0.01088,3.586506 -0.108432,0.306648 c -0.232176,0.656601 -0.633433,1.125381 -1.23141,1.43863 -0.563696,0.295292 -0.01058,0.272496 -6.7828602,0.279547 -3.3345828,0.0035 -6.1594566,-0.0064 -6.2774972,-0.02186 z m 5.8910867,-7.473087 c -0.2318429,-0.06125 -0.5032229,-0.351452 -0.563459,-0.602544 -0.040746,-0.169846 -0.038253,-0.23352 0.016651,-0.4253287 0.064314,-0.224685 0.076816,-0.237839 3.1512667,-3.3157388 L 13.860528,3.4063855 12.869529,2.4159583 C 12.32448,1.8712234 11.848027,1.3642307 11.810744,1.289308 c -0.04203,-0.084454 -0.06784,-0.2260003 -0.06792,-0.37245846 -1.86e-4,-0.319537 0.150517,-0.5716879 0.426629,-0.71381912 l 0.192886,-0.0992897 2.566154,-0.0123603 c 1.86098,-0.008964 2.623866,1.7958e-4 2.776168,0.0332728 0.294317,0.063951 0.558886,0.32632142 0.62097,0.61581072 0.0574,0.26765596 0.0589,5.07813946 0.0017,5.32899306 -0.05973,0.2617457 -0.208942,0.4502354 -0.449657,0.5680062 -0.236671,0.1157923 -0.472991,0.1165096 -0.713536,0.00217 -0.07492,-0.035615 -0.581864,-0.5106524 -1.126536,-1.0556389 l -0.99035,-0.990889 -3.090273,3.0861065 C 8.9570515,10.67509 8.8605299,10.767121 8.6556084,10.826993 c -0.2370657,0.06926 -0.2704552,0.07017 -0.4862341,0.01316 z"
       id="path1" /></g></svg>
