<?xml version="1.0" encoding="UTF-8" standalone="no"?>
<!-- Created with Inkscape (http://www.inkscape.org/) -->

<svg
   width="20.1mm"
   height="24mm"
   viewBox="0 0 20.1 24"
   version="1.1"
   id="svg1"
   xml:space="preserve"
   inkscape:version="1.4 (86a8ad7, 2024-10-11)"
   sodipodi:docname="usericon.svg"
   xmlns:inkscape="http://www.inkscape.org/namespaces/inkscape"
   xmlns:sodipodi="http://sodipodi.sourceforge.net/DTD/sodipodi-0.dtd"
   xmlns="http://www.w3.org/2000/svg"
   xmlns:svg="http://www.w3.org/2000/svg"><sodipodi:namedview
     id="namedview1"
     pagecolor="#ffffff"
     bordercolor="#000000"
     borderopacity="0.25"
     inkscape:showpageshadow="2"
     inkscape:pageopacity="0.0"
     inkscape:pagecheckerboard="0"
     inkscape:deskcolor="#d1d1d1"
     inkscape:document-units="mm"
     inkscape:zoom="7.4332772"
     inkscape:cx="73.184409"
     inkscape:cy="42.982387"
     inkscape:window-width="1920"
     inkscape:window-height="991"
     inkscape:window-x="2391"
     inkscape:window-y="-9"
     inkscape:window-maximized="1"
     inkscape:current-layer="layer1"
     showguides="true" /><defs
     id="defs1" /><g
     inkscape:label="Layer 1"
     inkscape:groupmode="layer"
     id="layer1"><path
       style="fill:#ffffff;fill-opacity:1"
       d="M 3.5788487,23.959102 C 2.5720804,23.809941 1.9077256,23.486784 1.2311711,22.817139 0.26632961,21.862151 -0.02001269,20.789731 0.13180431,18.699749 c 0.099663,-1.372004 0.3483423,-2.654064 0.6935512,-3.575583 0.20326189,-0.542598 0.64426719,-1.370296 0.92335269,-1.732989 0.8494234,-1.103889 2.048928,-1.717429 3.4083545,-1.743354 0.5085755,-0.0097 0.5531297,0.0092 1.6215736,0.688382 0.8116,0.515902 0.8507682,0.536565 1.4111281,0.744439 0.78213,0.290142 1.170552,0.363675 1.9097046,0.361528 1.148199,-0.0033 2.047723,-0.307218 3.306796,-1.117121 1.098786,-0.7068 1.167201,-0.731034 1.874566,-0.66401 2.518286,0.238609 4.055438,2.152722 4.619235,5.752024 0.198502,1.267246 0.213679,2.979315 0.03256,3.672898 -0.364509,1.395854 -1.408074,2.406266 -2.882589,2.791012 l -0.421096,0.109877 -6.386633,0.0066 c -3.5126479,0.0036 -6.5112038,-0.01182 -6.6634573,-0.03438 z M 16.57475,22.537929 c 0.77514,-0.138158 1.450147,-0.606726 1.776109,-1.232916 0.223776,-0.429885 0.313466,-0.870746 0.31297,-1.538364 -0.0014,-1.851667 -0.331711,-3.626588 -0.877776,-4.716405 -0.610437,-1.218285 -1.380757,-1.827573 -2.50993,-1.985242 -0.377145,-0.05266 -0.283659,-0.09123 -1.214144,0.500895 -0.813127,0.517443 -1.267436,0.736729 -2.000012,0.965371 -0.726481,0.226738 -1.251245,0.308428 -1.981305,0.308428 -0.7510786,0 -1.3183926,-0.09108 -2.0422446,-0.327888 -0.7708028,-0.252163 -1.1393465,-0.434335 -2.022094,-0.999523 l -0.7770024,-0.497484 -0.34091,0.04767 c -1.3017948,0.182046 -2.1943007,1.00526 -2.763808,2.549232 -0.4209088,1.141111 -0.7062996,3.19747 -0.6266251,4.515092 0.081408,1.346293 0.8530388,2.208666 2.1760215,2.43192 0.1201543,0.02028 2.9871731,0.03861 6.3711516,0.04074 5.075616,0.0032 6.216921,-0.0076 6.519599,-0.06153 z M 9.4469014,11.560055 C 7.6012613,11.433381 5.8968176,10.35195 4.9186856,8.6870054 4.0691212,7.2409038 3.9313276,5.2457104 4.5722511,3.6707777 5.260576,1.9793664 6.8159889,0.62731367 8.5345254,0.2265455 10.588178,-0.25237307 12.560218,0.3021363 14.013425,1.7671341 15.015672,2.777513 15.553857,3.9332936 15.662882,5.3094268 15.772325,6.6908454 15.47369,7.8915784 14.741759,9.0130242 14.462412,9.4410327 13.537757,10.36668 13.118299,10.638226 12.004058,11.359557 10.828,11.654846 9.4469014,11.560055 Z M 10.37675,10.159817 c 0.556634,-0.05863 0.924131,-0.153953 1.348397,-0.3497583 1.192412,-0.5503165 2.111087,-1.632438 2.429594,-2.8618576 0.0968,-0.3736476 0.119777,-0.5747137 0.122097,-1.068507 0.0033,-0.6972852 -0.05162,-1.0426279 -0.255123,-1.6050449 C 13.631641,3.1966267 12.532582,2.1087322 11.428813,1.7080855 10.679193,1.4359883 9.6135074,1.3898808 8.8152564,1.5950087 7.367595,1.9670166 6.0914086,3.2412846 5.6955945,4.7099811 5.5502986,5.2491121 5.5482833,6.368806 5.6916255,6.9151946 c 0.1992126,0.759354 0.512373,1.3033153 1.1096839,1.927527 0.7414817,0.7748754 1.594088,1.2028084 2.622197,1.3161104 0.469609,0.05175 0.471227,0.05175 0.9532436,9.85e-4 z"
       id="path1" /></g></svg>
